<svg width="47" height="32" viewBox="0 0 47 32" fill="none" xmlns="http://www.w3.org/2000/svg">
<path fill-rule="evenodd" clip-rule="evenodd" d="M10.6286 30.6509C9.91286 30.6509 9.50932 30.2626 9.50932 29.5712V17.4211L0.194934 1.72379C-0.254289 0.947188 0.103566 0.428619 0.953789 0.428619H6.68708C7.31396 0.428619 7.7175 0.689156 7.98399 1.20522L13.0929 10.6321L18.1968 1.20522C18.4633 0.689156 18.8668 0.428619 19.4937 0.428619H25.227C26.0772 0.428619 26.4351 0.947188 25.9884 1.72379L16.674 17.4211V30.6233" fill="#2F2F39"/>
<path fill-rule="evenodd" clip-rule="evenodd" d="M40.1168 20.9393C40.1168 18.0376 37.8506 16.1148 34.9068 16.1148C31.9629 16.1148 29.6992 18.0376 29.6992 20.9393C29.6992 23.841 31.9629 25.7613 34.9068 25.7613C37.8506 25.7613 40.1168 23.841 40.1168 20.9393ZM22.9092 20.9394C22.9092 14.8472 28.2497 10.1432 34.9079 10.1432C41.566 10.1432 46.9091 14.8472 46.9091 20.9394C46.9091 27.0315 41.566 31.7305 34.9079 31.7305C28.2497 31.7305 22.9092 27.0315 22.9092 20.9394Z" fill="#2F2F39"/>
<path fill-rule="evenodd" clip-rule="evenodd" d="M31.6348 4.67873V1.57535C31.6348 0.840265 32.0324 0.428619 32.7395 0.428619H45.8027C46.5098 0.428619 46.9074 0.840265 46.9074 1.57535V4.67873C46.9074 5.41114 46.5098 5.82545 45.8027 5.82545H32.7395C32.0324 5.82545 31.6348 5.41114 31.6348 4.67873Z" fill="#2F2F39"/>
</svg>
